<svg version="1.1" id="Layer_1" xmlns="http://www.w3.org/2000/svg" xmlns:xlink="http://www.w3.org/1999/xlink" x="0px" y="0px"
	 viewBox="0 0 95 18" style="enable-background:new 0 0 95 18;" xml:space="preserve">
<style type="text/css">
	.st0{fill-rule:evenodd;clip-rule:evenodd;fill:url(#Fill-1_1_);}
	.st1{fill-rule:evenodd;clip-rule:evenodd;fill:url(#Fill-3_1_);}
	.st2{fill:#00A0E3;}
	.st3{fill:url(#Fill-7_1_);}
	.st4{fill:url(#Fill-11_1_);}
	.st5{fill:url(#Fill-15_1_);}
	.st6{fill:url(#Fill-19_1_);}
	.st7{fill:#0267AE;}
</style>
<linearGradient id="Fill-1_1_" gradientUnits="userSpaceOnUse" x1="-47.9264" y1="239.2949" x2="-47.9264" y2="238.476" gradientTransform="matrix(31.7739 0 0 -11 1559.6949 2638.0986)">
	<stop  offset="0" style="stop-color:#0395DA"/>
	<stop  offset="1" style="stop-color:#2E3292"/>
</linearGradient>
<path id="Fill-1" class="st0" d="M24,14.8c-0.2,0-0.5,0-0.7,0c-0.4,0-0.8,0-1.1-0.1c-0.3-0.1-0.6-0.2-0.9-0.3
	c-0.1,0-0.1-0.1-0.2-0.1c0,0-0.1-0.1-0.1-0.1c0-0.1,0-0.1,0-0.2c0-0.2,0-0.4,0-0.6c0-0.2,0-0.4,0-0.5c0-0.2,0-0.3,0-0.4
	c0-0.1,0-0.2,0-0.3c0-0.1,0-0.2,0-0.3c0-0.1,0.1-0.1,0.1-0.1c0.1,0,0.1,0,0.1,0.1c0,0,0,0.1,0,0.2c0,0.1,0,0.2,0,0.3
	c0,0.1,0.1,0.3,0.1,0.4c0.1,0.3,0.3,0.6,0.5,0.8c0.2,0.2,0.4,0.4,0.7,0.5c0.3,0.1,0.5,0.1,0.8,0.1c0.3,0,0.6-0.1,0.8-0.1
	c0.2-0.1,0.4-0.2,0.6-0.4c0.2-0.2,0.3-0.3,0.3-0.5c0.1-0.2,0.1-0.4,0.1-0.6c0-0.2,0-0.3-0.1-0.5c0-0.2-0.1-0.3-0.2-0.5
	c-0.1-0.2-0.2-0.4-0.4-0.6c-0.2-0.2-0.4-0.4-0.7-0.6l-0.6-0.5c-0.5-0.4-0.9-0.8-1.2-1.1c-0.3-0.4-0.5-0.7-0.6-1.1
	c-0.1-0.4-0.2-0.7-0.2-1.1c0-0.4,0.1-0.7,0.2-1.1c0.2-0.3,0.4-0.6,0.7-0.8c0.3-0.2,0.6-0.4,1-0.5c0.4-0.1,0.8-0.2,1.3-0.2
	c0.4,0,0.8,0,1.1,0.1c0.3,0.1,0.5,0.1,0.7,0.2c0.1,0,0.1,0,0.1,0.1c0,0,0.1,0.1,0.1,0.1c0,0.1,0,0.1,0,0.3c0,0.1,0,0.3,0,0.5
	c0,0.2,0,0.5,0,0.9c0,0.2,0,0.3,0,0.3c0,0.1-0.1,0.1-0.1,0.1c0,0-0.1,0-0.1-0.1c0,0,0-0.1,0-0.2c0,0,0-0.1,0-0.2
	c0-0.1-0.1-0.2-0.1-0.3c-0.1-0.1-0.1-0.3-0.2-0.4c-0.1-0.1-0.2-0.2-0.3-0.3c-0.1-0.1-0.3-0.2-0.5-0.3c-0.2-0.1-0.4-0.1-0.7-0.1
	c-0.3,0-0.6,0.1-0.9,0.2C23.2,4.8,23,5,22.9,5.2c-0.1,0.2-0.2,0.5-0.2,0.7c0,0.2,0,0.4,0.1,0.6C22.9,6.8,23,7,23.2,7.2
	c0.2,0.2,0.5,0.5,0.9,0.8l0.4,0.3c0.4,0.3,0.8,0.6,1.1,0.9c0.3,0.3,0.5,0.6,0.7,0.9c0.2,0.3,0.3,0.6,0.4,0.9
	c0.1,0.3,0.1,0.6,0.1,0.9c0,0.3,0,0.6-0.1,0.8c-0.1,0.3-0.2,0.6-0.4,0.8c-0.2,0.3-0.5,0.5-0.8,0.7c-0.2,0.1-0.5,0.3-0.7,0.3
	C24.5,14.7,24.3,14.8,24,14.8z M39.3,8.2L39.3,8.2l0.1,4.9c0,0.3,0,0.5,0.1,0.7c0,0.2,0.1,0.3,0.1,0.4c0.1,0.1,0.1,0.1,0.2,0.2
	c0.1,0,0.2,0.1,0.3,0.1c0.1,0,0.2,0,0.3,0c0.1,0,0.1,0,0.2,0c0,0,0.1,0.1,0.1,0.1c0,0,0,0.1-0.1,0.1c0,0-0.1,0-0.2,0
	c-0.4,0-0.7,0-1,0c-0.3,0-0.5,0-0.6,0c0,0-0.1,0-0.3,0c-0.1,0-0.3,0-0.5,0c-0.2,0-0.4,0-0.6,0c-0.1,0-0.2,0-0.2,0c0,0,0,0,0,0
	c0,0-0.1,0-0.1,0c-0.1,0-0.2,0-0.3,0c-0.1,0-0.3,0-0.6,0c-0.2,0-0.5,0-0.8,0c-0.3,0-0.6,0-1,0c-0.1,0-0.2,0-0.3,0
	c-0.1,0-0.1,0-0.1-0.1c0,0,0-0.1,0-0.1c0,0,0.1,0,0.1,0c0,0,0.1,0,0.1-0.1c0,0,0-0.1,0-0.2l-0.9-2.4c0,0,0-0.1-0.1-0.1
	c0,0,0,0-0.1,0h-2.9c0,0-0.1,0-0.1,0c0,0,0,0,0,0.1l-0.7,1.6c-0.1,0.1-0.1,0.3-0.1,0.4c0,0.1,0,0.2,0,0.3c0,0.1,0,0.2,0.1,0.2
	c0.1,0.1,0.2,0.1,0.4,0.1h0.2c0.1,0,0.1,0,0.1,0c0,0,0,0.1,0,0.1c0,0,0,0.1-0.1,0.1c0,0-0.1,0-0.1,0c-0.1,0-0.3,0-0.4,0
	c-0.2,0-0.3,0-0.5,0c-0.2,0-0.3,0-0.4,0c0,0-0.1,0-0.3,0c-0.1,0-0.3,0-0.5,0c-0.2,0-0.4,0-0.6,0c-0.1,0-0.1,0-0.2,0
	c0,0-0.1-0.1-0.1-0.1c0,0,0-0.1,0-0.1c0,0,0.1,0,0.1,0c0.1,0,0.1,0,0.2,0c0.1,0,0.1,0,0.2,0c0.2,0,0.3-0.1,0.5-0.2
	c0.1-0.1,0.2-0.2,0.3-0.4c0.1-0.1,0.2-0.3,0.2-0.5l3.2-7.5c0.1-0.2,0.1-0.3,0.2-0.4c0.1-0.1,0.1-0.1,0.2-0.1c0.1,0,0.1,0,0.1,0
	c0,0,0.1,0.1,0.1,0.1c0,0.1,0.1,0.1,0.1,0.2c0,0.1,0.1,0.3,0.2,0.5c0.1,0.3,0.2,0.6,0.4,0.9c0.2,0.4,0.3,0.7,0.5,1.2
	c0.2,0.4,0.4,0.9,0.6,1.3c0.2,0.4,0.4,0.9,0.6,1.3c0.2,0.4,0.3,0.8,0.5,1.2c0.2,0.4,0.3,0.7,0.4,0.9c0.1,0.3,0.2,0.5,0.3,0.6
	c0.1,0.2,0.2,0.3,0.3,0.4c0.1,0.1,0.2,0.1,0.2,0.2c0.1,0,0.1,0.1,0.2,0.1c0.1,0,0.2,0,0.2,0c0.1,0,0.1,0,0.2,0c0.1,0,0.1,0,0.1,0
	c0,0,0.1,0,0.1,0c0.1,0,0.2,0,0.3,0c0.1,0,0.2,0,0.3,0c0.1,0,0.2-0.1,0.2-0.2c0.1-0.1,0.1-0.2,0.1-0.4c0-0.2,0-0.5,0-0.8l0.1-7.1
	c0-0.1,0-0.2,0.1-0.3c0-0.1,0.1-0.1,0.2-0.1c0.1,0,0.2,0,0.2,0.1c0.1,0.1,0.2,0.2,0.3,0.3c0,0,0.1,0.1,0.3,0.3
	c0.2,0.2,0.4,0.4,0.6,0.6c0.2,0.3,0.5,0.5,0.8,0.9c0.3,0.3,0.6,0.6,1,1c0.3,0.4,0.7,0.7,1.1,1.1c0.2,0.2,0.4,0.4,0.6,0.6
	c0.2,0.2,0.4,0.4,0.7,0.7c0.2,0.2,0.4,0.4,0.6,0.7c0.2,0.2,0.4,0.4,0.5,0.5c0.1,0.1,0.2,0.2,0.3,0.3h0.1L45.5,7c0-0.2,0-0.4,0-0.6
	c0-0.1-0.1-0.2-0.1-0.3C45.2,6,45.1,6,45,6c-0.1,0-0.1,0-0.2,0c-0.1,0-0.2,0-0.2,0c-0.1,0-0.1,0-0.2,0c-0.1,0-0.1,0-0.2,0
	c0,0,0-0.1,0-0.1c0,0,0-0.1,0.1-0.1c0.1,0,0.1,0,0.2,0c0.2,0,0.4,0,0.6,0c0.2,0,0.4,0,0.5,0c0.2,0,0.3,0,0.4,0c0.1,0,0.2,0,0.4,0
	c0.2,0,0.5,0,0.8,0c0.1,0,0.2,0,0.2,0c0.1,0,0.1,0,0.1,0.1c0,0,0,0.1-0.1,0.1c0,0-0.1,0-0.2,0c-0.1,0-0.1,0-0.2,0
	c-0.1,0-0.1,0-0.2,0c-0.1,0-0.2,0.1-0.3,0.1c-0.1,0.1-0.1,0.2-0.1,0.3c0,0.1,0,0.3,0,0.5l-0.1,7.5c0,0.1,0,0.2-0.1,0.3
	c0,0.1-0.1,0.1-0.1,0.1c-0.1,0-0.2,0-0.3-0.1c-0.1,0-0.2-0.1-0.2-0.2c-0.2-0.2-0.4-0.4-0.7-0.7c-0.3-0.3-0.6-0.5-0.9-0.9
	c-0.3-0.3-0.6-0.6-1-1c-0.3-0.3-0.7-0.6-1-1c-0.3-0.3-0.7-0.7-1-1c-0.3-0.3-0.6-0.6-0.9-0.9C40,9,39.8,8.7,39.6,8.5
	C39.4,8.4,39.3,8.2,39.3,8.2z M49.8,11.2c0,0.4,0,0.7,0,1.1c0,0.3,0,0.6,0,0.9c0,0.3,0,0.5,0,0.6c0,0.2-0.1,0.3-0.1,0.4
	c-0.1,0.1-0.1,0.2-0.3,0.2c-0.1,0-0.1,0-0.2,0c-0.1,0-0.2,0-0.2,0c-0.1,0-0.1,0-0.2,0c0,0,0,0.1,0,0.1c0,0,0,0.1,0.1,0.1
	c0,0,0.1,0,0.2,0c0.1,0,0.3,0,0.4,0c0.2,0,0.3,0,0.5,0c0.2,0,0.3,0,0.4,0c0.1,0,0.2,0,0.3,0c0.1,0,0.3,0,0.5,0c0.2,0,0.4,0,0.7,0
	c0.3,0,0.5,0,0.8,0c0.1,0,0.1,0,0.2,0c0,0,0.1-0.1,0.1-0.1c0,0,0-0.1,0-0.1c0,0-0.1,0-0.1,0c-0.1,0-0.1,0-0.2,0c-0.1,0-0.1,0-0.2,0
	c-0.1,0-0.1,0-0.2,0c-0.1,0-0.2-0.1-0.3-0.1c-0.1,0-0.1-0.1-0.1-0.2c0-0.1-0.1-0.2-0.1-0.3c0-0.2,0-0.4,0-0.6c0-0.3,0-0.6,0-0.9
	c0-0.3,0-0.7,0-1.1v-3c0-0.3,0-0.5,0-0.6c0-0.2,0-0.3,0-0.4c0-0.1,0-0.2,0-0.3c0-0.1,0-0.2,0-0.2c0-0.2,0-0.4,0.1-0.5
	C51.6,6,51.7,6,51.9,5.9c0.1,0,0.1,0,0.2,0c0.1,0,0.1,0,0.2,0c0.1,0,0.1,0,0.1,0c0,0,0.1-0.1,0.1-0.1c0,0,0-0.1-0.1-0.1
	c0,0-0.1,0-0.2,0c-0.1,0-0.3,0-0.4,0c-0.1,0-0.3,0-0.4,0c-0.1,0-0.3,0-0.4,0c-0.1,0-0.2,0-0.3,0c-0.1,0-0.2,0-0.3,0
	c-0.1,0-0.3,0-0.4,0c-0.2,0-0.3,0-0.5,0c-0.2,0-0.3,0-0.4,0c-0.1,0-0.2,0-0.2,0c0,0-0.1,0-0.1,0.1c0,0.1,0,0.1,0.1,0.1
	c0,0,0.1,0,0.1,0c0.1,0,0.2,0,0.2,0c0.1,0,0.1,0,0.2,0c0.1,0,0.2,0.1,0.2,0.1c0.1,0,0.1,0.1,0.1,0.2c0,0.1,0.1,0.2,0.1,0.3
	c0,0.1,0,0.2,0,0.2c0,0.1,0,0.2,0,0.3c0,0.1,0,0.3,0,0.4V11.2z M30.6,11C30.6,11,30.6,11,30.6,11C30.5,11,30.5,11,30.6,11l1.1-3.1
	c0,0,0,0,0-0.1c0,0,0,0,0,0c0,0,0,0,0,0c0,0,0,0,0,0.1l1.2,3c0,0,0,0,0,0.1c0,0,0,0-0.1,0H30.6z"/>
<linearGradient id="Fill-3_1_" gradientUnits="userSpaceOnUse" x1="-48.292" y1="235.7105" x2="-48.292" y2="234.7105" gradientTransform="matrix(41.3897 0 0 -9.3981 2073.0952 2220.5828)">
	<stop  offset="0" style="stop-color:#838487"/>
	<stop  offset="1" style="stop-color:#292625"/>
</linearGradient>
<path id="Fill-3" class="st1" d="M81.9,13.9c0-0.1,0.1-0.3,0.1-0.4l1.2-7.8c0-0.1,0-0.2,0.1-0.2c0-0.1,0.1-0.1,0.1-0.1
	c0,0,0.1,0,0.1,0c0,0,0.1,0.1,0.1,0.1c0,0.1,0.1,0.1,0.1,0.2l3.3,6.7l3.3-6.7c0-0.1,0.1-0.2,0.2-0.2c0.1,0,0.1-0.1,0.2-0.1
	c0.1,0,0.1,0,0.2,0.1c0.1,0.1,0.1,0.2,0.1,0.3l1.1,7.4c0,0.2,0.1,0.5,0.1,0.6c0,0.2,0.1,0.3,0.2,0.4c0.1,0.1,0.2,0.2,0.3,0.2
	c0.2,0,0.3,0.1,0.4,0.1c0.1,0,0.2,0,0.3,0c0.1,0,0.1,0,0.1,0c0,0,0.1,0,0.1,0.1c0,0,0,0.1-0.1,0.1c-0.1,0-0.1,0-0.2,0
	c-0.1,0-0.2,0-0.3,0c-0.2,0-0.3,0-0.5,0c-0.2,0-0.4,0-0.6,0c-0.2,0-0.4,0-0.6,0c-0.2,0-0.3,0-0.4,0c-0.1,0-0.2,0-0.3,0
	c-0.1,0-0.1-0.1-0.1-0.1c0,0,0-0.1,0-0.1c0,0,0.1,0,0.1-0.1c0,0,0.1-0.1,0.1-0.1c0-0.1,0-0.2,0-0.4l-0.7-5.2h0L87.2,14
	c-0.1,0.2-0.2,0.3-0.2,0.4c-0.1,0.1-0.1,0.2-0.1,0.2c0,0-0.1,0.1-0.1,0c-0.1,0-0.2-0.1-0.2-0.2c-0.1-0.1-0.2-0.3-0.3-0.4
	c-0.1-0.1-0.1-0.3-0.2-0.5c-0.1-0.2-0.2-0.4-0.3-0.6c-0.1-0.2-0.2-0.5-0.4-0.7c-0.1-0.2-0.2-0.4-0.3-0.6c-0.1-0.2-0.1-0.3-0.2-0.4
	c0,0-0.1-0.1-0.1-0.3c-0.1-0.1-0.1-0.3-0.2-0.5c-0.1-0.2-0.2-0.4-0.3-0.6c-0.1-0.2-0.2-0.4-0.3-0.6c-0.1-0.2-0.2-0.4-0.3-0.6h0
	L83,13.4c0,0.1,0,0.2,0,0.3c0,0.1,0,0.2,0,0.3c0,0.1,0,0.2,0.1,0.2c0.1,0.1,0.2,0.1,0.3,0.1c0.1,0,0.2,0,0.3,0c0.1,0,0.1,0,0.2,0
	c0.1,0,0.1,0,0.1,0c0,0,0.1,0,0.1,0.1c0,0.1,0,0.1-0.1,0.1c-0.1,0-0.1,0-0.2,0c-0.2,0-0.3,0-0.5,0c-0.2,0-0.3,0-0.5,0
	c-0.1,0-0.2,0-0.3,0c-0.1,0-0.2,0-0.3,0l-0.2,0c0,0-0.1,0-0.2,0h-1.2c-0.2,0-0.4,0-0.6,0c-0.2,0-0.3,0-0.4-0.1
	c-0.1,0-0.2-0.1-0.3-0.1c-0.2-0.1-0.3-0.2-0.5-0.4c-0.2-0.2-0.3-0.4-0.5-0.6c-0.2-0.2-0.4-0.5-0.6-0.8c-0.1-0.2-0.2-0.3-0.4-0.5
	c-0.1-0.2-0.2-0.3-0.3-0.5c-0.1-0.2-0.2-0.3-0.3-0.4c-0.1-0.1-0.1-0.2-0.2-0.2c0,0-0.1-0.1-0.1-0.1c0,0-0.1,0-0.1,0l-1.1,0
	c0,0-0.1,0-0.1,0c0,0,0,0,0,0.1v0.2c0,0.4,0,0.7,0,1c0,0.3,0,0.6,0,0.9c0,0.3,0,0.5,0,0.6c0,0.1,0,0.2,0.1,0.3
	c0,0.1,0.1,0.2,0.1,0.2c0.1,0.1,0.2,0.1,0.3,0.1c0.1,0,0.1,0,0.2,0c0.1,0,0.1,0,0.2,0c0.1,0,0.1,0,0.2,0c0,0,0.1,0,0.1,0
	c0,0,0,0.1,0,0.1c0,0,0,0.1-0.1,0.1c0,0-0.1,0-0.2,0c-0.2,0-0.4,0-0.6,0c-0.2,0-0.4,0-0.6,0c-0.2,0-0.3,0-0.5,0c-0.1,0-0.2,0-0.3,0
	c-0.1,0-0.2,0-0.3,0c-0.1,0-0.2,0-0.4,0c-0.1,0-0.3,0-0.4,0c-0.1,0-0.3,0-0.4,0c-0.1,0-0.1,0-0.2,0c0,0-0.1-0.1-0.1-0.1
	c0,0,0-0.1,0-0.1c0,0,0.1,0,0.2,0c0.1,0,0.2,0,0.2,0c0.1,0,0.1,0,0.2,0c0.1,0,0.2-0.1,0.3-0.2c0.1-0.1,0.1-0.3,0.1-0.4
	c0-0.2,0-0.4,0-0.6c0-0.3,0-0.5,0-0.9c0-0.3,0-0.7,0-1V7.5c0-0.2,0-0.3,0-0.4c0-0.1,0-0.2,0-0.3c0-0.1,0-0.2,0-0.2
	c0-0.1,0-0.2-0.1-0.3c0-0.1-0.1-0.1-0.2-0.2c-0.1,0-0.2-0.1-0.3-0.1c-0.1,0-0.1,0-0.2,0c-0.1,0-0.2,0-0.3,0c-0.1,0-0.1,0-0.2,0
	c0,0-0.1-0.1-0.1-0.1c0,0,0-0.1,0.1-0.1c0,0,0.1,0,0.2,0c0.2,0,0.3,0,0.5,0c0.2,0,0.3,0,0.5,0c0.2,0,0.3,0,0.4,0c0.1,0,0.2,0,0.3,0
	c0.1,0,0.2,0,0.4,0c0.2,0,0.4,0,0.5,0c0.2,0,0.4,0,0.5,0c0.2,0,0.3,0,0.4,0c0.3,0,0.5,0,0.8,0c0.3,0,0.5,0.1,0.8,0.1
	c0.3,0.1,0.5,0.2,0.7,0.3c0.1,0.1,0.2,0.1,0.3,0.2c0.1,0.1,0.2,0.2,0.3,0.4s0.2,0.3,0.2,0.5c0.1,0.2,0.1,0.4,0.1,0.6
	c0,0.3-0.1,0.6-0.2,0.9c-0.1,0.3-0.3,0.6-0.5,0.9c-0.2,0.3-0.6,0.6-1,0.9c0.5,0.7,1,1.3,1.5,1.8c0.4,0.5,0.8,1,1.2,1.4
	c0.2,0.2,0.4,0.4,0.6,0.5c0.2,0.1,0.3,0.2,0.4,0.2c0.1,0,0.2,0.1,0.3,0.1l0,0l0,0c0.1,0,0.2-0.1,0.3-0.2
	C81.9,14.1,81.9,14,81.9,13.9z M92.8,6.5c0-0.6,0.5-1.1,1.1-1.1S95,5.9,95,6.5c0,0.6-0.5,1.1-1.1,1.1S92.8,7.2,92.8,6.5z M65.7,12.2
	c0-0.3,0-0.7,0-1V7.5c0-0.2,0-0.3,0-0.4c0-0.1,0-0.2,0-0.3c0-0.1,0-0.2,0-0.2c0-0.1,0-0.2-0.1-0.3c0-0.1-0.1-0.1-0.2-0.2
	c-0.1,0-0.2-0.1-0.3-0.1c-0.1,0-0.1,0-0.2,0c-0.1,0-0.2,0-0.3,0c-0.1,0-0.1,0-0.2,0c0,0-0.1-0.1-0.1-0.1c0,0,0-0.1,0.1-0.1
	c0,0,0.1,0,0.2,0c0.2,0,0.4,0,0.7,0c0.2,0,0.4,0,0.6,0c0.2,0,0.4,0,0.5,0h0.4c0.2,0,0.4,0,0.6,0c0.2,0,0.5,0,0.7,0
	c0.3,0,0.5,0,0.7,0c0.2,0,0.4,0,0.6,0c0.2,0,0.3,0,0.3,0c0.1,0,0.2,0,0.3,0c0.1,0,0.2,0,0.2,0c0,0,0.1,0,0.1,0c0,0,0.1,0,0.1,0
	c0,0,0.1,0,0.1,0c0,0,0,0,0,0.1c0,0,0,0.1,0,0.1c0,0,0,0.1,0,0.2c0,0.1,0,0.2,0,0.4c0,0,0,0.1,0,0.2c0,0.1,0,0.1,0,0.2
	c0,0.1,0,0.2,0,0.2c0,0.1,0,0.1,0,0.2c0,0,0,0,0,0.1c0,0,0,0.1,0,0.1c0,0,0,0-0.1,0c0,0-0.1,0-0.1,0c0,0,0-0.1,0-0.1
	c0,0,0-0.1,0-0.1c0,0,0-0.1,0-0.2c0-0.1,0-0.1-0.1-0.2c0-0.1-0.1-0.1-0.1-0.2c0-0.1-0.1-0.1-0.2-0.1c-0.1,0-0.3-0.1-0.5-0.1
	c0,0-0.1,0-0.3,0c-0.1,0-0.3,0-0.4,0c-0.2,0-0.3,0-0.5,0c-0.2,0-0.3,0-0.4,0c-0.1,0-0.2,0-0.3,0c0,0,0,0-0.1,0c0,0,0,0,0,0.1v2.9
	c0,0,0,0.1,0,0.1c0,0,0,0,0.1,0h0.3c0.1,0,0.3,0,0.5,0c0.2,0,0.4,0,0.6,0c0.2,0,0.3,0,0.5,0c0.1,0,0.2,0,0.3,0c0.1,0,0.3,0,0.4-0.1
	c0.1,0,0.2-0.1,0.2-0.1c0,0,0.1-0.1,0.1-0.1c0,0,0.1,0,0.1,0c0,0,0.1,0,0.1,0c0,0,0,0.1,0,0.1c0,0,0,0.1,0,0.1c0,0.1,0,0.1,0,0.3
	c0,0.1,0,0.3-0.1,0.5c0,0.1,0,0.1,0,0.2c0,0.1,0,0.2,0,0.2c0,0.1,0,0.2,0,0.2c0,0.1,0,0.1,0,0.1c0,0,0,0.1,0,0.1c0,0,0,0.1,0,0.1
	c0,0,0,0-0.1,0c0,0-0.1,0-0.1,0c0,0,0,0,0-0.1c0-0.1,0-0.1,0-0.2c0-0.1,0-0.2,0-0.2c0-0.1-0.1-0.2-0.1-0.2c0-0.1-0.1-0.1-0.2-0.2
	c-0.1,0-0.2-0.1-0.4-0.1c0,0-0.1,0-0.3,0c-0.1,0-0.3,0-0.4,0c-0.2,0-0.3,0-0.5,0c-0.2,0-0.3,0-0.4,0c-0.1,0-0.2,0-0.3,0
	c0,0,0,0-0.1,0c0,0,0,0.1,0,0.1v1c0,0.1,0,0.2,0,0.4c0,0.2,0,0.3,0,0.5c0,0.2,0,0.3,0,0.5c0,0.2,0,0.3,0,0.4c0,0.3,0.1,0.5,0.2,0.6
	c0.1,0.1,0.3,0.2,0.5,0.3c0.2,0.1,0.6,0.1,1,0.1c0.1,0,0.2,0,0.4,0c0.1,0,0.3,0,0.4,0c0.1,0,0.3-0.1,0.4-0.1
	c0.2-0.1,0.3-0.2,0.3-0.3c0.1-0.1,0.1-0.3,0.2-0.6c0-0.1,0-0.1,0-0.1c0,0,0.1,0,0.1,0c0,0,0.1,0,0.1,0.1c0,0.1,0,0.1,0,0.2
	c0,0.1,0,0.2,0,0.3c0,0.1,0,0.2,0,0.4c0,0.1,0,0.3-0.1,0.4c0,0.1,0,0.2-0.1,0.3c0,0.1-0.1,0.2-0.1,0.2c0,0-0.1,0.1-0.2,0.1
	c-0.1,0-0.2,0-0.4,0c-0.5,0-0.9,0-1.2,0c-0.4,0-0.7,0-1,0c-0.3,0-0.6,0-0.8,0c-0.2,0-0.4,0-0.6,0c-0.1,0-0.2,0-0.3,0
	c-0.1,0-0.3,0-0.4,0c-0.1,0-0.3,0-0.4,0c-0.1,0-0.3,0-0.4,0c-0.1,0-0.1,0-0.2,0c0,0-0.1-0.1-0.1-0.1c0,0,0-0.1,0-0.1
	c0,0,0.1,0,0.2,0c0.1,0,0.2,0,0.2,0c0.1,0,0.1,0,0.2,0c0.1,0,0.2-0.1,0.3-0.2c0.1-0.1,0.1-0.3,0.1-0.4c0-0.2,0-0.4,0-0.6
	C65.7,12.8,65.7,12.5,65.7,12.2z M93.9,5.6c0.5,0,0.9,0.4,0.9,0.9c0,0.6-0.4,1-0.9,1c-0.5,0-0.9-0.4-0.9-1C93,6,93.4,5.6,93.9,5.6z
	 M54.8,11.2c0,0.4,0,0.7,0,1c0,0.3,0,0.6,0,0.9c0,0.3,0,0.5,0,0.6c0,0.2-0.1,0.3-0.1,0.4c-0.1,0.1-0.1,0.2-0.3,0.2
	c-0.1,0-0.1,0-0.2,0c-0.1,0-0.1,0-0.2,0c-0.1,0-0.1,0-0.2,0c0,0,0,0.1,0,0.1c0,0,0,0.1,0.1,0.1c0,0,0.1,0,0.2,0c0.1,0,0.3,0,0.4,0
	c0.1,0,0.3,0,0.4,0c0.1,0,0.3,0,0.4,0c0.1,0,0.2,0,0.3,0c0.2,0,0.3,0,0.5,0c0.2,0,0.4,0,0.7,0.1c0.2,0,0.5,0,0.7,0
	c0.2,0,0.5,0,0.7,0c0.6,0,1.1,0,1.5-0.1c0.4-0.1,0.8-0.2,1.2-0.4c0.3-0.1,0.6-0.3,0.9-0.5c0.2-0.2,0.4-0.3,0.6-0.5
	c0.2-0.2,0.5-0.5,0.7-0.8c0.2-0.3,0.4-0.7,0.5-1.1c0.1-0.4,0.2-0.9,0.2-1.4c0-0.5-0.1-0.9-0.2-1.3c-0.1-0.4-0.2-0.7-0.4-1
	c-0.2-0.3-0.4-0.5-0.6-0.7c-0.3-0.3-0.7-0.6-1.1-0.8C61,6,60.6,5.9,60.2,5.8c-0.4-0.1-0.9-0.1-1.3-0.1c-0.4,0-0.8,0-1.2,0
	c-0.2,0-0.4,0-0.6,0c-0.2,0-0.4,0-0.6,0c-0.2,0-0.3,0-0.5,0c-0.1,0-0.3,0-0.4,0c-0.1,0-0.3,0-0.5,0c-0.2,0-0.4,0-0.6,0
	c-0.2,0-0.4,0-0.7,0c-0.1,0-0.2,0-0.2,0c0,0-0.1,0-0.1,0.1c0,0,0,0.1,0.1,0.1c0,0,0.1,0,0.2,0c0.1,0,0.2,0,0.3,0c0.1,0,0.2,0,0.2,0
	c0.1,0,0.2,0.1,0.3,0.1c0.1,0,0.1,0.1,0.2,0.2c0,0.1,0.1,0.2,0.1,0.3c0,0.1,0,0.2,0,0.2c0,0.1,0,0.2,0,0.3c0,0.1,0,0.3,0,0.4V11.2z
	 M93.5,6.4c0-0.2,0-0.1,0-0.3c0-0.1,0-0.1-0.1-0.1c0,0-0.1,0-0.1,0c0,0,0,0,0,0c0.1,0,0.2,0,0.3,0c0.1,0,0.2,0,0.3,0
	c0.2,0,0.4,0,0.4,0.3c0,0.1-0.1,0.2-0.2,0.3l0.2,0.2C94.4,6.9,94.5,7,94.5,7c0,0,0,0,0,0c0,0,0,0-0.1,0c-0.1,0-0.3,0-0.4-0.2
	l-0.1-0.2h-0.2v0.1c0,0.1,0,0.2,0,0.2c0,0,0,0.1,0.1,0.1c0,0,0,0,0,0c0,0,0,0-0.1,0c-0.1,0-0.2,0-0.2,0c0,0-0.2,0-0.3,0
	c0,0-0.1,0-0.1,0c0,0,0,0,0.1,0c0.1,0,0.1,0,0.1-0.1c0,0,0-0.1,0-0.3V6.4z M93.9,6.5c-0.1,0-0.1,0-0.1,0V6c0,0,0.1,0,0.1,0
	c0.2,0,0.2,0.1,0.2,0.3c0,0.1,0,0.1-0.1,0.2C94,6.5,93.9,6.5,93.9,6.5z M56.5,10.4V8c0-0.3,0-0.6,0-0.8c0-0.2,0-0.4,0-0.6
	c0-0.1,0-0.1,0-0.2c0,0,0.1-0.1,0.1-0.1c0,0,0.1,0,0.2,0c0.1,0,0.2,0,0.3,0c0.1,0,0.2,0,0.3,0c0.2,0,0.5,0,0.8,0
	c0.3,0,0.6,0.1,0.9,0.2c0.3,0.1,0.6,0.2,0.9,0.3c0.3,0.2,0.6,0.4,0.9,0.6c0.1,0.1,0.3,0.3,0.4,0.5c0.1,0.2,0.3,0.4,0.4,0.6
	c0.1,0.2,0.2,0.5,0.3,0.8c0.1,0.3,0.1,0.7,0.1,1c0,0.4,0,0.8-0.1,1.2c-0.1,0.4-0.2,0.7-0.3,1c-0.2,0.3-0.4,0.6-0.6,0.8
	c-0.2,0.2-0.5,0.4-0.8,0.5c-0.3,0.1-0.6,0.2-0.9,0.3c-0.3,0.1-0.6,0.1-1,0.1c-0.3,0-0.6,0-0.8-0.1c-0.2,0-0.4-0.1-0.5-0.2
	c-0.1-0.1-0.2-0.1-0.3-0.2c0,0-0.1-0.1-0.1-0.2c0-0.1,0-0.2,0-0.3c0-0.1,0-0.2,0-0.3c0-0.1,0-0.2,0-0.5c0-0.2,0-0.5,0-0.8
	C56.5,11.2,56.5,10.8,56.5,10.4z M75,6.5c0,0,0-0.1,0-0.1c0,0,0,0,0.1-0.1c0.1,0,0.2,0,0.3,0c0.1,0,0.3,0,0.4,0c0.1,0,0.3,0,0.5,0.1
	c0.2,0,0.3,0.1,0.5,0.2c0.2,0.1,0.3,0.2,0.4,0.4c0.1,0.2,0.2,0.4,0.3,0.6c0.1,0.2,0.1,0.5,0.1,0.9c0,0.3,0,0.6-0.1,0.8
	c-0.1,0.2-0.2,0.4-0.3,0.6c-0.1,0.2-0.2,0.3-0.4,0.4c-0.1,0.1-0.1,0.1-0.2,0.1c-0.1,0-0.2,0-0.3,0.1c-0.1,0-0.2,0-0.4,0
	c-0.2,0-0.3,0-0.5,0c-0.2,0-0.3,0-0.4-0.1c0,0-0.1,0-0.1-0.1c0,0,0-0.1,0-0.1V6.5z"/>
<path id="Fill-5" class="st2" d="M9.1,4.5c0,2.4,2,4.4,4.4,4.4H16V6.7V5.9h-3.4c-0.4,0-0.8,0-1.2-0.1c-1-0.1-1.6-0.5-2-1
	C9.3,4.7,9.2,4.5,9.1,4.3V4.5z"/>
<linearGradient id="Fill-7_1_" gradientUnits="userSpaceOnUse" x1="-32.9541" y1="196.6723" x2="-32.9541" y2="195.6723" gradientTransform="matrix(3.0219 0 0 -3.7445 110.2263 738.416)">
	<stop  offset="0" style="stop-color:#0395DA"/>
	<stop  offset="1" style="stop-color:#2E3292"/>
</linearGradient>
<path id="Fill-7" class="st3" d="M9.1,2v1.2c0,0.5,0.1,1.1,0.5,1.6c0.4,0.5,1.1,0.9,2.5,0.9V2H9.1z"/>
<path id="Fill-9" class="st2" d="M13.5,9.1c-2.4,0-4.4,2-4.4,4.4V16h2.2h0.8v-3.4c0-0.4,0-0.8,0.1-1.2c0.1-1,0.5-1.6,1-2
	c0.2-0.1,0.4-0.2,0.6-0.3H13.5z"/>
<linearGradient id="Fill-11_1_" gradientUnits="userSpaceOnUse" x1="-35.6472" y1="180.6539" x2="-36.6472" y2="180.6539" gradientTransform="matrix(3.7445 0 0 -3.0219 149.5112 556.4948)">
	<stop  offset="0" style="stop-color:#0395DA"/>
	<stop  offset="1" style="stop-color:#2E3292"/>
</linearGradient>
<path id="Fill-11" class="st4" d="M16,9.1h-1.2c-0.5,0-1.1,0.1-1.6,0.5c-0.5,0.4-0.9,1.1-0.9,2.5H16V9.1z"/>
<path id="Fill-13" class="st2" d="M8.9,13.4c0-2.4-2-4.4-4.4-4.4H2v2.2V12h3.4c0.4,0,0.8,0,1.2,0.1c1,0.1,1.6,0.5,2,1
	c0.1,0.2,0.2,0.4,0.3,0.6V13.4z"/>
<linearGradient id="Fill-15_1_" gradientUnits="userSpaceOnUse" x1="-32.9541" y1="195.6723" x2="-32.9541" y2="196.6723" gradientTransform="matrix(3.0219 0 0 -3.7445 107.0074 748.5984)">
	<stop  offset="0" style="stop-color:#0395DA"/>
	<stop  offset="1" style="stop-color:#2E3292"/>
</linearGradient>
<path id="Fill-15" class="st5" d="M8.9,15.9v-1.2c0-0.5-0.1-1.1-0.5-1.6c-0.4-0.5-1.1-0.9-2.5-0.9v3.7H8.9z"/>
<path id="Fill-17" class="st2" d="M4.6,8.9c2.4,0,4.4-2,4.4-4.4V2H6.8H6v3.4c0,0.4,0,0.8-0.1,1.2c-0.1,1-0.5,1.6-1,2
	C4.8,8.7,4.6,8.8,4.4,8.9H4.6z"/>
<linearGradient id="Fill-19_1_" gradientUnits="userSpaceOnUse" x1="-36.6472" y1="180.6539" x2="-35.6472" y2="180.6539" gradientTransform="matrix(3.7445 0 0 -3.0219 139.3283 553.2758)">
	<stop  offset="0" style="stop-color:#0395DA"/>
	<stop  offset="1" style="stop-color:#2E3292"/>
</linearGradient>
<path id="Fill-19" class="st6" d="M2.1,8.9h1.2c0.5,0,1.1-0.1,1.6-0.5C5.4,8,5.8,7.2,5.8,5.8H2.1V8.9z"/>
<path id="Fill-24" class="st2" d="M9.4,0.1c4.7,0,8.4,3.8,8.4,8.4c0,4-2.8,7.4-6.6,8.2c3.4-1,5.9-4.1,5.9-7.9c0-4.5-3.7-8.2-8.2-8.2
	c-3.7,0-6.9,2.5-7.9,5.9C2,2.9,5.4,0.1,9.4,0.1z"/>
<path id="Fill-21" class="st7" d="M9.1,18C4.1,18,0,13.9,0,8.9c0-4.3,3-8,7.1-8.9C3.4,1.1,0.7,4.5,0.7,8.5c0,4.9,3.9,8.8,8.8,8.8
	c4,0,7.4-2.7,8.5-6.4C17.1,15,13.5,18,9.1,18z"/>
</svg>
